<svg xmlns="http://www.w3.org/2000/svg" viewBox="0 0 500 500" width="500" height="500" class="illustration"><title>50.Talk</title><g id="Layer_4" data-name="Layer 4"><path d="M317,234.43c-10.55,1.62-19.74,9.37-23.85,19.21s-3.26,21.46,1.54,31c3.89,7.73,10.1,14,16.2,20.14l31.37,31.54a340.45,340.45,0,0,1,49.6-49.23c4-3.22,8.18-6.48,10.58-11,4.85-9.15,1-20.61-5-29.07a33.4,33.4,0,0,0-9.14-9.25c-6.7-4.24-15.28-4.62-23-2.79-6.95,1.65-16.53,9.63-23.46,7.64-3.71-1.06-7-5.21-10.85-6.66A28,28,0,0,0,317,234.43Z" fill="#3fe2fd"></path></g><g id="Layer_1" data-name="Layer 1"><path d="M470.14,265.61A125.5,125.5,0,0,0,297.71,159.48,139.11,139.11,0,0,0,168.31,71.1H168A138.83,138.83,0,0,0,81.75,318.48l.13,61.31a7,7,0,0,0,11.18,5.6l51.81-38.61a140.33,140.33,0,0,0,23.71,2,138,138,0,0,0,64.7-16.18A125.57,125.57,0,0,0,376,397.25l49,30.59a7,7,0,0,0,10.69-6.5l-4.39-54.58A124.46,124.46,0,0,0,470.14,265.61Zm-50.74,93.1a7,7,0,0,0-2.31,5.77l3.55,44.11-39.77-24.83a7,7,0,0,0-3.7-1.06,7.12,7.12,0,0,0-1.89.26,112.76,112.76,0,0,1-21.28,3.8,111.48,111.48,0,1,1,65.4-28.05Zm-251.11-24a125.35,125.35,0,0,1-23.83-2.28,7,7,0,0,0-5.51,1.26l-43.1,32.12L95.75,315A7,7,0,0,0,93,309.46,124.82,124.82,0,0,1,168,85.1h.27A125.06,125.06,0,0,1,285,165.52,125.51,125.51,0,0,0,227.6,319.74a124,124,0,0,1-59,15Z" fill="#251ac7"></path><path d="M368.78,225.89A40.71,40.71,0,0,0,344.42,234,40.12,40.12,0,0,0,320,225.89a40.52,40.52,0,0,0-27,70.74l46.68,42a7,7,0,0,0,9.37,0l46.05-41.47a40.52,40.52,0,0,0-26.36-71.28ZM386,286.58l-.14.12L344.4,324l-42-37.81A26.52,26.52,0,0,1,320,239.89a26.29,26.29,0,0,1,19.29,8.32,7,7,0,0,0,5.08,2.19h0a7,7,0,0,0,5.08-2.2A26.52,26.52,0,1,1,386,286.58Z" fill="#251ac7"></path><path d="M232.4,201.66a40.52,40.52,0,0,0-64.88-32.37,40.1,40.1,0,0,0-24.39-8.14,40.52,40.52,0,0,0-27,70.74l46.69,42a7,7,0,0,0,9.36,0l46.05-41.48A40.44,40.44,0,0,0,232.4,201.66Zm-23.32,20.18-.14.12-41.43,37.32-42-37.81a26.52,26.52,0,0,1,17.64-46.32,26.34,26.34,0,0,1,19.3,8.31,7,7,0,0,0,5.08,2.19h0a7,7,0,0,0,5.09-2.19,26.51,26.51,0,1,1,36.48,38.38Z" fill="#251ac7"></path></g></svg>